<mxfile host="app.diagrams.net" modified="2023-07-13T17:46:12.015Z" agent="Mozilla/5.0 (Windows NT 10.0; Win64; x64) AppleWebKit/537.36 (KHTML, like Gecko) Chrome/114.0.0.0 Safari/537.36" etag="qIc8QA4yiJk49cK2y81I" version="21.5.2" type="device">
  <diagram name="Page-1" id="2YBvvXClWsGukQMizWep">
    <mxGraphModel dx="2284" dy="731" grid="1" gridSize="10" guides="1" tooltips="1" connect="1" arrows="1" fold="1" page="1" pageScale="1" pageWidth="850" pageHeight="1100" math="0" shadow="0">
      <root>
        <mxCell id="0" />
        <mxCell id="1" parent="0" />
        <mxCell id="aM9ryv3xv72pqoxQDRHE-5" value="&lt;font style=&quot;font-size: 14px;&quot;&gt;&lt;b&gt;Plugin&lt;/b&gt;&lt;/font&gt;" style="shape=umlLifeline;perimeter=lifelinePerimeter;whiteSpace=wrap;html=1;container=0;dropTarget=0;collapsible=0;recursiveResize=0;outlineConnect=0;portConstraint=eastwest;newEdgeStyle={&quot;edgeStyle&quot;:&quot;elbowEdgeStyle&quot;,&quot;elbow&quot;:&quot;vertical&quot;,&quot;curved&quot;:0,&quot;rounded&quot;:0};size=40;" parent="1" vertex="1">
          <mxGeometry x="-525" y="30" width="100" height="790" as="geometry" />
        </mxCell>
        <mxCell id="aM9ryv3xv72pqoxQDRHE-6" value="" style="html=1;points=[];perimeter=orthogonalPerimeter;outlineConnect=0;targetShapes=umlLifeline;portConstraint=eastwest;newEdgeStyle={&quot;edgeStyle&quot;:&quot;elbowEdgeStyle&quot;,&quot;elbow&quot;:&quot;vertical&quot;,&quot;curved&quot;:0,&quot;rounded&quot;:0};" parent="aM9ryv3xv72pqoxQDRHE-5" vertex="1">
          <mxGeometry x="45" y="210" width="10" height="40" as="geometry" />
        </mxCell>
        <mxCell id="nT646OI-ueqToEDPWVYZ-11" value="&lt;font style=&quot;font-size: 14px;&quot;&gt;&lt;b&gt;IssuerAgent&lt;/b&gt;&lt;/font&gt;" style="shape=umlLifeline;perimeter=lifelinePerimeter;whiteSpace=wrap;html=1;container=0;dropTarget=0;collapsible=0;recursiveResize=0;outlineConnect=0;portConstraint=eastwest;newEdgeStyle={&quot;edgeStyle&quot;:&quot;elbowEdgeStyle&quot;,&quot;elbow&quot;:&quot;vertical&quot;,&quot;curved&quot;:0,&quot;rounded&quot;:0};" parent="1" vertex="1">
          <mxGeometry x="-280" y="30" width="100" height="790" as="geometry" />
        </mxCell>
        <mxCell id="nT646OI-ueqToEDPWVYZ-12" value="" style="html=1;points=[];perimeter=orthogonalPerimeter;outlineConnect=0;targetShapes=umlLifeline;portConstraint=eastwest;newEdgeStyle={&quot;edgeStyle&quot;:&quot;elbowEdgeStyle&quot;,&quot;elbow&quot;:&quot;vertical&quot;,&quot;curved&quot;:0,&quot;rounded&quot;:0};" parent="nT646OI-ueqToEDPWVYZ-11" vertex="1">
          <mxGeometry x="45" y="250" width="10" height="40" as="geometry" />
        </mxCell>
        <mxCell id="k6UqP_-qyDsTDoqeYATk-24" value="" style="html=1;points=[];perimeter=orthogonalPerimeter;outlineConnect=0;targetShapes=umlLifeline;portConstraint=eastwest;newEdgeStyle={&quot;edgeStyle&quot;:&quot;elbowEdgeStyle&quot;,&quot;elbow&quot;:&quot;vertical&quot;,&quot;curved&quot;:0,&quot;rounded&quot;:0};" vertex="1" parent="nT646OI-ueqToEDPWVYZ-11">
          <mxGeometry x="45" y="70" width="10" height="60" as="geometry" />
        </mxCell>
        <mxCell id="nT646OI-ueqToEDPWVYZ-13" value="&lt;font style=&quot;font-size: 14px;&quot;&gt;&lt;b&gt;Student&lt;br&gt;Wallet&lt;br&gt;&lt;/b&gt;&lt;/font&gt;" style="shape=umlLifeline;perimeter=lifelinePerimeter;whiteSpace=wrap;html=1;container=0;dropTarget=0;collapsible=0;recursiveResize=0;outlineConnect=0;portConstraint=eastwest;newEdgeStyle={&quot;edgeStyle&quot;:&quot;elbowEdgeStyle&quot;,&quot;elbow&quot;:&quot;vertical&quot;,&quot;curved&quot;:0,&quot;rounded&quot;:0};" parent="1" vertex="1">
          <mxGeometry x="10" y="30" width="100" height="790" as="geometry" />
        </mxCell>
        <mxCell id="U5y6GJUcYvfg62ZKBtHw-4" value="" style="html=1;points=[];perimeter=orthogonalPerimeter;outlineConnect=0;targetShapes=umlLifeline;portConstraint=eastwest;newEdgeStyle={&quot;edgeStyle&quot;:&quot;elbowEdgeStyle&quot;,&quot;elbow&quot;:&quot;vertical&quot;,&quot;curved&quot;:0,&quot;rounded&quot;:0};" parent="nT646OI-ueqToEDPWVYZ-13" vertex="1">
          <mxGeometry x="45" y="290" width="10" height="20" as="geometry" />
        </mxCell>
        <mxCell id="k6UqP_-qyDsTDoqeYATk-28" value="" style="html=1;points=[];perimeter=orthogonalPerimeter;outlineConnect=0;targetShapes=umlLifeline;portConstraint=eastwest;newEdgeStyle={&quot;edgeStyle&quot;:&quot;elbowEdgeStyle&quot;,&quot;elbow&quot;:&quot;vertical&quot;,&quot;curved&quot;:0,&quot;rounded&quot;:0};" vertex="1" parent="nT646OI-ueqToEDPWVYZ-13">
          <mxGeometry x="45" y="90" width="10" height="40" as="geometry" />
        </mxCell>
        <mxCell id="k6UqP_-qyDsTDoqeYATk-39" value="" style="html=1;points=[];perimeter=orthogonalPerimeter;outlineConnect=0;targetShapes=umlLifeline;portConstraint=eastwest;newEdgeStyle={&quot;edgeStyle&quot;:&quot;elbowEdgeStyle&quot;,&quot;elbow&quot;:&quot;vertical&quot;,&quot;curved&quot;:0,&quot;rounded&quot;:0};" vertex="1" parent="nT646OI-ueqToEDPWVYZ-13">
          <mxGeometry x="45" y="390" width="10" height="20" as="geometry" />
        </mxCell>
        <mxCell id="k6UqP_-qyDsTDoqeYATk-50" value="" style="html=1;points=[];perimeter=orthogonalPerimeter;outlineConnect=0;targetShapes=umlLifeline;portConstraint=eastwest;newEdgeStyle={&quot;edgeStyle&quot;:&quot;elbowEdgeStyle&quot;,&quot;elbow&quot;:&quot;vertical&quot;,&quot;curved&quot;:0,&quot;rounded&quot;:0};" vertex="1" parent="nT646OI-ueqToEDPWVYZ-13">
          <mxGeometry x="45" y="730" width="10" height="40" as="geometry" />
        </mxCell>
        <mxCell id="nT646OI-ueqToEDPWVYZ-15" value="&lt;font style=&quot;font-size: 14px;&quot;&gt;&lt;b&gt;Verifier&lt;/b&gt;&lt;/font&gt;" style="shape=umlLifeline;perimeter=lifelinePerimeter;whiteSpace=wrap;html=1;container=0;dropTarget=0;collapsible=0;recursiveResize=0;outlineConnect=0;portConstraint=eastwest;newEdgeStyle={&quot;edgeStyle&quot;:&quot;elbowEdgeStyle&quot;,&quot;elbow&quot;:&quot;vertical&quot;,&quot;curved&quot;:0,&quot;rounded&quot;:0};" parent="1" vertex="1">
          <mxGeometry x="348.5" y="30" width="100" height="790" as="geometry" />
        </mxCell>
        <mxCell id="U5y6GJUcYvfg62ZKBtHw-13" value="" style="html=1;points=[];perimeter=orthogonalPerimeter;outlineConnect=0;targetShapes=umlLifeline;portConstraint=eastwest;newEdgeStyle={&quot;edgeStyle&quot;:&quot;elbowEdgeStyle&quot;,&quot;elbow&quot;:&quot;vertical&quot;,&quot;curved&quot;:0,&quot;rounded&quot;:0};" parent="nT646OI-ueqToEDPWVYZ-15" vertex="1">
          <mxGeometry x="45" y="410" width="10" height="40" as="geometry" />
        </mxCell>
        <mxCell id="k6UqP_-qyDsTDoqeYATk-48" value="" style="html=1;points=[];perimeter=orthogonalPerimeter;outlineConnect=0;targetShapes=umlLifeline;portConstraint=eastwest;newEdgeStyle={&quot;edgeStyle&quot;:&quot;elbowEdgeStyle&quot;,&quot;elbow&quot;:&quot;vertical&quot;,&quot;curved&quot;:0,&quot;rounded&quot;:0};" vertex="1" parent="nT646OI-ueqToEDPWVYZ-15">
          <mxGeometry x="45" y="690" width="10" height="40" as="geometry" />
        </mxCell>
        <mxCell id="nT646OI-ueqToEDPWVYZ-17" value="&lt;font style=&quot;font-size: 14px;&quot;&gt;&lt;b&gt;VerifierAgent&lt;/b&gt;&lt;/font&gt;" style="shape=umlLifeline;perimeter=lifelinePerimeter;whiteSpace=wrap;html=1;container=0;dropTarget=0;collapsible=0;recursiveResize=0;outlineConnect=0;portConstraint=eastwest;newEdgeStyle={&quot;edgeStyle&quot;:&quot;elbowEdgeStyle&quot;,&quot;elbow&quot;:&quot;vertical&quot;,&quot;curved&quot;:0,&quot;rounded&quot;:0};" parent="1" vertex="1">
          <mxGeometry x="640" y="30" width="100" height="790" as="geometry" />
        </mxCell>
        <mxCell id="nT646OI-ueqToEDPWVYZ-18" value="" style="html=1;points=[];perimeter=orthogonalPerimeter;outlineConnect=0;targetShapes=umlLifeline;portConstraint=eastwest;newEdgeStyle={&quot;edgeStyle&quot;:&quot;elbowEdgeStyle&quot;,&quot;elbow&quot;:&quot;vertical&quot;,&quot;curved&quot;:0,&quot;rounded&quot;:0};" parent="nT646OI-ueqToEDPWVYZ-17" vertex="1">
          <mxGeometry x="45" y="410" width="10" height="120" as="geometry" />
        </mxCell>
        <mxCell id="k6UqP_-qyDsTDoqeYATk-47" value="" style="html=1;points=[];perimeter=orthogonalPerimeter;outlineConnect=0;targetShapes=umlLifeline;portConstraint=eastwest;newEdgeStyle={&quot;edgeStyle&quot;:&quot;elbowEdgeStyle&quot;,&quot;elbow&quot;:&quot;vertical&quot;,&quot;curved&quot;:0,&quot;rounded&quot;:0};" vertex="1" parent="nT646OI-ueqToEDPWVYZ-17">
          <mxGeometry x="45" y="670" width="10" height="20" as="geometry" />
        </mxCell>
        <mxCell id="nT646OI-ueqToEDPWVYZ-35" value="&lt;font style=&quot;font-size: 14px;&quot;&gt;transfer(JSON VC)&lt;/font&gt;" style="html=1;verticalAlign=bottom;endArrow=block;edgeStyle=elbowEdgeStyle;elbow=horizontal;curved=0;rounded=0;" parent="1" source="aM9ryv3xv72pqoxQDRHE-5" target="nT646OI-ueqToEDPWVYZ-12" edge="1">
          <mxGeometry x="0.0049" width="80" relative="1" as="geometry">
            <mxPoint x="-470" y="240" as="sourcePoint" />
            <mxPoint x="-250.5" y="240" as="targetPoint" />
            <mxPoint as="offset" />
            <Array as="points">
              <mxPoint x="-330" y="280" />
            </Array>
          </mxGeometry>
        </mxCell>
        <mxCell id="U5y6GJUcYvfg62ZKBtHw-1" value="&lt;span style=&quot;font-size: 14px;&quot;&gt;&lt;b&gt;VDR&lt;/b&gt;&lt;/span&gt;" style="shape=umlLifeline;perimeter=lifelinePerimeter;whiteSpace=wrap;html=1;container=0;dropTarget=0;collapsible=0;recursiveResize=0;outlineConnect=0;portConstraint=eastwest;newEdgeStyle={&quot;edgeStyle&quot;:&quot;elbowEdgeStyle&quot;,&quot;elbow&quot;:&quot;vertical&quot;,&quot;curved&quot;:0,&quot;rounded&quot;:0};" parent="1" vertex="1">
          <mxGeometry x="170" y="30" width="100" height="790" as="geometry" />
        </mxCell>
        <mxCell id="k6UqP_-qyDsTDoqeYATk-44" value="" style="html=1;points=[];perimeter=orthogonalPerimeter;outlineConnect=0;targetShapes=umlLifeline;portConstraint=eastwest;newEdgeStyle={&quot;edgeStyle&quot;:&quot;elbowEdgeStyle&quot;,&quot;elbow&quot;:&quot;vertical&quot;,&quot;curved&quot;:0,&quot;rounded&quot;:0};" vertex="1" parent="U5y6GJUcYvfg62ZKBtHw-1">
          <mxGeometry x="45" y="490" width="10" height="40" as="geometry" />
        </mxCell>
        <mxCell id="U5y6GJUcYvfg62ZKBtHw-3" value="&lt;span style=&quot;font-size: 14px;&quot;&gt;issue(JSON VC)&lt;/span&gt;" style="html=1;verticalAlign=bottom;endArrow=block;edgeStyle=elbowEdgeStyle;elbow=vertical;curved=0;rounded=0;" parent="1" source="nT646OI-ueqToEDPWVYZ-12" edge="1" target="U5y6GJUcYvfg62ZKBtHw-4">
          <mxGeometry width="80" relative="1" as="geometry">
            <mxPoint x="-220" y="280" as="sourcePoint" />
            <mxPoint y="280" as="targetPoint" />
            <Array as="points">
              <mxPoint x="-120" y="320" />
            </Array>
          </mxGeometry>
        </mxCell>
        <mxCell id="U5y6GJUcYvfg62ZKBtHw-6" value="&lt;span style=&quot;font-size: 14px;&quot;&gt;verifiablePresentation(claims, &lt;br&gt;IssuerSig.,StudentSig., IssuerDID, StudentDID)&lt;/span&gt;" style="html=1;verticalAlign=bottom;endArrow=block;edgeStyle=elbowEdgeStyle;elbow=vertical;curved=0;rounded=0;" parent="1" edge="1">
          <mxGeometry x="0.4952" width="80" relative="1" as="geometry">
            <mxPoint x="393.5" y="440" as="sourcePoint" />
            <mxPoint x="400" y="440" as="targetPoint" />
            <Array as="points">
              <mxPoint x="60" y="440" />
            </Array>
            <mxPoint as="offset" />
          </mxGeometry>
        </mxCell>
        <mxCell id="U5y6GJUcYvfg62ZKBtHw-7" value="&lt;font style=&quot;font-size: 14px;&quot;&gt;verificationRequest(IssuerSig., &lt;br&gt;StudentSig., IssuerDID, StudentDID)&lt;br&gt;&lt;/font&gt;" style="html=1;verticalAlign=bottom;endArrow=block;edgeStyle=elbowEdgeStyle;elbow=vertical;curved=0;rounded=0;exitX=1;exitY=1;exitDx=0;exitDy=0;exitPerimeter=0;" parent="1" target="nT646OI-ueqToEDPWVYZ-18" edge="1">
          <mxGeometry width="80" relative="1" as="geometry">
            <mxPoint x="403.5" y="480" as="sourcePoint" />
            <mxPoint x="645" y="480" as="targetPoint" />
            <Array as="points">
              <mxPoint x="440" y="480" />
              <mxPoint x="520" y="460" />
            </Array>
          </mxGeometry>
        </mxCell>
        <mxCell id="k6UqP_-qyDsTDoqeYATk-29" value="&lt;span style=&quot;font-size: 14px;&quot;&gt;connectionRequest(Issuer, IssuerDID)&lt;/span&gt;" style="html=1;verticalAlign=bottom;endArrow=block;edgeStyle=elbowEdgeStyle;elbow=vertical;curved=0;rounded=0;" edge="1" parent="1" source="k6UqP_-qyDsTDoqeYATk-24" target="nT646OI-ueqToEDPWVYZ-13">
          <mxGeometry x="0.0049" width="80" relative="1" as="geometry">
            <mxPoint x="-220" y="120" as="sourcePoint" />
            <mxPoint x="-15" y="120" as="targetPoint" />
            <mxPoint as="offset" />
            <Array as="points">
              <mxPoint x="-130" y="120" />
            </Array>
          </mxGeometry>
        </mxCell>
        <mxCell id="k6UqP_-qyDsTDoqeYATk-30" value="&lt;font style=&quot;font-size: 14px;&quot;&gt;connectionRespond(WalletAddress)&lt;/font&gt;" style="html=1;verticalAlign=bottom;endArrow=block;edgeStyle=elbowEdgeStyle;elbow=horizontal;curved=0;rounded=0;" edge="1" parent="1" source="k6UqP_-qyDsTDoqeYATk-28" target="k6UqP_-qyDsTDoqeYATk-24">
          <mxGeometry x="0.0049" width="80" relative="1" as="geometry">
            <mxPoint x="10" y="160" as="sourcePoint" />
            <mxPoint x="-220" y="160" as="targetPoint" />
            <mxPoint as="offset" />
            <Array as="points">
              <mxPoint x="-90" y="160" />
            </Array>
          </mxGeometry>
        </mxCell>
        <mxCell id="k6UqP_-qyDsTDoqeYATk-35" value="Connection between IssuerAgent and Student Wallet&lt;br&gt;is established&amp;nbsp;" style="shape=ext;double=1;rounded=1;whiteSpace=wrap;html=1;" vertex="1" parent="1">
          <mxGeometry x="-292.5" y="180" width="125" height="70" as="geometry" />
        </mxCell>
        <mxCell id="k6UqP_-qyDsTDoqeYATk-42" value="&lt;font style=&quot;font-size: 14px;&quot;&gt;DIDDocumentLookup(IssuerDID, StudentDID)&lt;/font&gt;" style="html=1;verticalAlign=bottom;endArrow=block;edgeStyle=elbowEdgeStyle;elbow=horizontal;curved=0;rounded=0;" edge="1" parent="1" target="k6UqP_-qyDsTDoqeYATk-44">
          <mxGeometry x="0.0049" width="80" relative="1" as="geometry">
            <mxPoint x="680" y="520" as="sourcePoint" />
            <mxPoint x="400" y="520" as="targetPoint" />
            <mxPoint as="offset" />
            <Array as="points">
              <mxPoint x="535" y="520" />
            </Array>
          </mxGeometry>
        </mxCell>
        <mxCell id="k6UqP_-qyDsTDoqeYATk-43" value="Student wants to present claims from VC" style="shape=ext;double=1;rounded=1;whiteSpace=wrap;html=1;" vertex="1" parent="1">
          <mxGeometry x="15" y="350" width="90" height="50" as="geometry" />
        </mxCell>
        <mxCell id="k6UqP_-qyDsTDoqeYATk-45" value="&lt;font style=&quot;font-size: 14px;&quot;&gt;DIDDocuments(Issuer, Student)&lt;br&gt;&lt;/font&gt;" style="html=1;verticalAlign=bottom;endArrow=block;edgeStyle=elbowEdgeStyle;elbow=vertical;curved=0;rounded=0;entryX=0.5;entryY=1;entryDx=0;entryDy=0;entryPerimeter=0;" edge="1" parent="1" source="k6UqP_-qyDsTDoqeYATk-44" target="nT646OI-ueqToEDPWVYZ-18">
          <mxGeometry width="80" relative="1" as="geometry">
            <mxPoint x="230" y="560" as="sourcePoint" />
            <mxPoint x="511.5" y="560" as="targetPoint" />
            <Array as="points">
              <mxPoint x="266.5" y="560" />
              <mxPoint x="346.5" y="540" />
            </Array>
          </mxGeometry>
        </mxCell>
        <mxCell id="k6UqP_-qyDsTDoqeYATk-46" value="Agent verifies the digital Signatures of the JSON VC using the Public Keys stored in the DID Documents" style="shape=ext;double=1;rounded=1;whiteSpace=wrap;html=1;" vertex="1" parent="1">
          <mxGeometry x="627.5" y="590" width="132.5" height="80" as="geometry" />
        </mxCell>
        <mxCell id="k6UqP_-qyDsTDoqeYATk-49" value="&lt;font style=&quot;font-size: 14px;&quot;&gt;verificationResponse(Boolean)&lt;/font&gt;" style="html=1;verticalAlign=bottom;endArrow=block;edgeStyle=elbowEdgeStyle;elbow=horizontal;curved=0;rounded=0;" edge="1" parent="1" target="k6UqP_-qyDsTDoqeYATk-48">
          <mxGeometry x="0.0049" width="80" relative="1" as="geometry">
            <mxPoint x="690" y="720" as="sourcePoint" />
            <mxPoint x="410" y="720" as="targetPoint" />
            <mxPoint as="offset" />
            <Array as="points">
              <mxPoint x="540" y="720" />
            </Array>
          </mxGeometry>
        </mxCell>
        <mxCell id="k6UqP_-qyDsTDoqeYATk-51" value="&lt;font style=&quot;font-size: 14px;&quot;&gt;verificationResponse(Boolean)&lt;/font&gt;" style="html=1;verticalAlign=bottom;endArrow=block;edgeStyle=elbowEdgeStyle;elbow=horizontal;curved=0;rounded=0;" edge="1" parent="1" source="k6UqP_-qyDsTDoqeYATk-48">
          <mxGeometry x="0.0049" width="80" relative="1" as="geometry">
            <mxPoint x="348.5" y="760" as="sourcePoint" />
            <mxPoint x="62.5" y="760" as="targetPoint" />
            <mxPoint as="offset" />
            <Array as="points">
              <mxPoint x="198.5" y="760" />
            </Array>
          </mxGeometry>
        </mxCell>
      </root>
    </mxGraphModel>
  </diagram>
</mxfile>
